<svg xmlns="http://www.w3.org/2000/svg" xmlns:xlink="http://www.w3.org/1999/xlink" width="500" zoomAndPan="magnify" viewBox="0 0 375 374.999991" height="500" preserveAspectRatio="xMidYMid meet" version="1.0"><defs><g/><clipPath id="85c1804229"><path d="M 130 77 L 243 77 L 243 189.597656 L 130 189.597656 Z M 130 77 " clip-rule="nonzero"/></clipPath><clipPath id="e62b6a3fb2"><path d="M 135 76.347656 L 174 76.347656 L 174 115 L 135 115 Z M 135 76.347656 " clip-rule="nonzero"/></clipPath><clipPath id="aaf4fcd049"><path d="M 179.652344 114.636719 L 195.402344 114.636719 L 195.402344 137.136719 L 179.652344 137.136719 Z M 179.652344 114.636719 " clip-rule="nonzero"/></clipPath></defs><g clip-path="url(#85c1804229)"><path fill="#ffffff" d="M 186.355469 188.210938 C 174.179688 187.105469 163.433594 181.691406 155.476562 173.617188 C 153.007812 173.863281 150.570312 174.046875 148.171875 174.175781 C 156.976562 182.429688 168.496094 187.917969 181.449219 189.09375 C 188.59375 189.742188 195.546875 189.019531 202.054688 187.144531 C 197.039062 188.304688 191.761719 188.699219 186.355469 188.210938 Z M 235.105469 161.332031 C 237.894531 156.519531 239.996094 151.242188 241.269531 145.613281 C 240.824219 145.875 240.382812 146.132812 239.933594 146.394531 C 239.105469 151.722656 237.449219 156.742188 235.105469 161.332031 Z M 242.652344 132.253906 C 242.214844 103.921875 220.453125 79.90625 191.601562 77.285156 C 185.621094 76.742188 179.773438 77.160156 174.214844 78.410156 C 175.457031 78.726562 176.152344 79.488281 176.488281 79.992188 C 178.511719 83.019531 175.332031 86.261719 173.804688 87.824219 C 172.160156 89.5 169.859375 91.503906 167.085938 93.671875 L 167.316406 94.976562 C 175.609375 90.507812 185.257812 88.339844 195.339844 89.257812 C 219.40625 91.441406 237.898438 110.445312 240.269531 133.613281 C 241.078125 133.164062 241.871094 132.710938 242.652344 132.253906 Z M 146.3125 116.695312 L 142.183594 108.496094 C 138.574219 109.953125 136.203125 110.644531 136.078125 110.679688 L 134.949219 111.003906 C 132.667969 116.304688 131.171875 122.050781 130.621094 128.113281 C 129.703125 138.226562 131.527344 147.953125 135.480469 156.566406 C 138.390625 157.15625 141.566406 157.582031 144.980469 157.832031 C 141.964844 150.613281 140.613281 142.574219 141.371094 134.238281 C 141.941406 127.949219 143.667969 122.039062 146.3125 116.695312 " fill-opacity="1" fill-rule="nonzero"/></g><path fill="#ffffff" d="M 134.53125 108.054688 C 117.765625 120.28125 108.808594 133.785156 112.285156 144.597656 C 118.292969 163.289062 159.1875 166.863281 203.621094 152.582031 C 246.234375 138.882812 278.472656 116.9375 273.746094 95.214844 C 274.105469 95.929688 274.417969 96.667969 274.664062 97.433594 C 280.960938 117.023438 246.605469 145.585938 197.925781 161.234375 C 149.246094 176.882812 104.679688 173.6875 98.382812 154.097656 C 94.054688 140.621094 108.960938 122.898438 134.53125 108.054688 " fill-opacity="1" fill-rule="nonzero"/><g clip-path="url(#e62b6a3fb2)"><path fill="#ceaf72" d="M 164.101562 114.191406 L 167.082031 112.203125 L 163.570312 92.304688 C 170.300781 87.210938 174.574219 82.933594 173.804688 81.78125 C 173.035156 80.632812 167.445312 82.941406 160.164062 87.207031 L 143.125 76.34375 L 140.148438 78.332031 L 152.15625 92.257812 C 149.335938 94.175781 146.792969 96.183594 144.585938 98.089844 L 137.328125 93.460938 L 135.839844 94.457031 L 141.4375 100.945312 C 137.460938 104.726562 135.1875 107.578125 135.1875 107.578125 C 135.1875 107.578125 138.691406 106.570312 143.707031 104.34375 L 147.558594 112 L 149.046875 111.007812 L 147.550781 102.527344 C 150.15625 101.222656 152.984375 99.640625 155.835938 97.769531 L 164.101562 114.191406 " fill-opacity="1" fill-rule="nonzero"/></g><g clip-path="url(#aaf4fcd049)"><path fill="#ceaf72" d="M 187.5 114.636719 C 183.167969 114.636719 179.652344 118.148438 179.652344 122.480469 C 179.652344 128.367188 187.5 137.050781 187.5 137.050781 C 187.5 137.050781 195.34375 128.367188 195.34375 122.480469 C 195.34375 118.148438 191.832031 114.636719 187.5 114.636719 Z M 187.5 125.285156 C 185.953125 125.285156 184.695312 124.027344 184.695312 122.480469 C 184.695312 120.933594 185.953125 119.679688 187.5 119.679688 C 189.046875 119.679688 190.300781 120.933594 190.300781 122.480469 C 190.300781 124.027344 189.046875 125.285156 187.5 125.285156 Z M 187.5 125.285156 " fill-opacity="1" fill-rule="nonzero"/></g><g fill="#ffffff" fill-opacity="1"><g transform="translate(48.622748, 252.503201)"><g><path d="M 17 0.59375 C 14.84375 0.59375 12.835938 0.207031 10.984375 -0.5625 C 9.128906 -1.332031 7.519531 -2.378906 6.15625 -3.703125 C 4.800781 -5.023438 3.734375 -6.570312 2.953125 -8.34375 C 2.179688 -10.113281 1.796875 -12 1.796875 -14 C 1.796875 -16 2.179688 -17.882812 2.953125 -19.65625 C 3.734375 -21.425781 4.800781 -22.972656 6.15625 -24.296875 C 7.519531 -25.617188 9.128906 -26.664062 10.984375 -27.4375 C 12.835938 -28.207031 14.84375 -28.59375 17 -28.59375 C 18.945312 -28.59375 20.660156 -28.300781 22.140625 -27.71875 C 23.617188 -27.132812 24.851562 -26.492188 25.84375 -25.796875 C 26.988281 -24.972656 27.972656 -24.039062 28.796875 -23 L 24.796875 -19 C 24.210938 -19.75 23.535156 -20.414062 22.765625 -21 C 22.097656 -21.507812 21.28125 -21.96875 20.3125 -22.375 C 19.351562 -22.789062 18.25 -23 17 -23 C 15.75 -23 14.578125 -22.765625 13.484375 -22.296875 C 12.390625 -21.828125 11.4375 -21.1875 10.625 -20.375 C 9.8125 -19.5625 9.171875 -18.609375 8.703125 -17.515625 C 8.234375 -16.421875 8 -15.25 8 -14 C 8 -12.75 8.234375 -11.578125 8.703125 -10.484375 C 9.171875 -9.390625 9.8125 -8.4375 10.625 -7.625 C 11.4375 -6.8125 12.390625 -6.171875 13.484375 -5.703125 C 14.578125 -5.234375 15.75 -5 17 -5 C 18.007812 -5 18.894531 -5.101562 19.65625 -5.3125 C 20.414062 -5.53125 21.0625 -5.785156 21.59375 -6.078125 C 22.207031 -6.398438 22.742188 -6.773438 23.203125 -7.203125 L 23.203125 -10.59375 L 18 -10.59375 L 18 -15.40625 L 29.203125 -15.40625 L 29.203125 -4.796875 C 28.316406 -3.785156 27.273438 -2.878906 26.078125 -2.078125 C 25.066406 -1.390625 23.800781 -0.769531 22.28125 -0.21875 C 20.757812 0.320312 19 0.59375 17 0.59375 Z M 17 0.59375 "/></g></g></g><g fill="#ffffff" fill-opacity="1"><g transform="translate(80.499582, 252.503201)"><g><path d="M 2.796875 -28 L 8.203125 -28 L 8.203125 0 L 2.796875 0 Z M 2.796875 -28 "/></g></g></g><g fill="#ffffff" fill-opacity="1"><g transform="translate(91.578487, 252.503201)"><g><path d="M 11.796875 0.40625 C 10.359375 0.40625 9.003906 0.140625 7.734375 -0.390625 C 6.472656 -0.929688 5.367188 -1.664062 4.421875 -2.59375 C 3.472656 -3.53125 2.734375 -4.613281 2.203125 -5.84375 C 1.671875 -7.070312 1.40625 -8.390625 1.40625 -9.796875 C 1.40625 -11.179688 1.671875 -12.492188 2.203125 -13.734375 C 2.734375 -14.972656 3.472656 -16.0625 4.421875 -17 C 5.367188 -17.9375 6.472656 -18.671875 7.734375 -19.203125 C 9.003906 -19.734375 10.359375 -20 11.796875 -20 C 13.234375 -20 14.585938 -19.734375 15.859375 -19.203125 C 17.128906 -18.671875 18.234375 -17.9375 19.171875 -17 C 20.117188 -16.0625 20.859375 -14.972656 21.390625 -13.734375 C 21.929688 -12.492188 22.203125 -11.179688 22.203125 -9.796875 C 22.203125 -8.390625 21.929688 -7.070312 21.390625 -5.84375 C 20.859375 -4.613281 20.117188 -3.53125 19.171875 -2.59375 C 18.234375 -1.664062 17.128906 -0.929688 15.859375 -0.390625 C 14.585938 0.140625 13.234375 0.40625 11.796875 0.40625 Z M 11.796875 -4.59375 C 12.492188 -4.59375 13.148438 -4.726562 13.765625 -5 C 14.378906 -5.269531 14.910156 -5.628906 15.359375 -6.078125 C 15.816406 -6.535156 16.171875 -7.082031 16.421875 -7.71875 C 16.671875 -8.363281 16.796875 -9.054688 16.796875 -9.796875 C 16.796875 -10.546875 16.671875 -11.238281 16.421875 -11.875 C 16.171875 -12.519531 15.816406 -13.066406 15.359375 -13.515625 C 14.910156 -13.972656 14.378906 -14.332031 13.765625 -14.59375 C 13.148438 -14.863281 12.492188 -15 11.796875 -15 C 11.109375 -15 10.457031 -14.863281 9.84375 -14.59375 C 9.226562 -14.332031 8.691406 -13.972656 8.234375 -13.515625 C 7.785156 -13.066406 7.429688 -12.519531 7.171875 -11.875 C 6.921875 -11.238281 6.796875 -10.546875 6.796875 -9.796875 C 6.796875 -9.054688 6.921875 -8.363281 7.171875 -7.71875 C 7.429688 -7.082031 7.785156 -6.535156 8.234375 -6.078125 C 8.691406 -5.628906 9.226562 -5.269531 9.84375 -5 C 10.457031 -4.726562 11.109375 -4.59375 11.796875 -4.59375 Z M 11.796875 -4.59375 "/></g></g></g><g fill="#ffffff" fill-opacity="1"><g transform="translate(115.256145, 252.503201)"><g><path d="M 14.59375 0.40625 C 13.53125 0.40625 12.617188 0.238281 11.859375 -0.09375 C 11.097656 -0.425781 10.453125 -0.796875 9.921875 -1.203125 C 9.304688 -1.679688 8.800781 -2.210938 8.40625 -2.796875 L 8.203125 -2.796875 L 8.203125 0 L 2.796875 0 L 2.796875 -28 L 8.203125 -28 L 8.203125 -16.796875 L 8.40625 -16.796875 C 8.800781 -17.390625 9.304688 -17.925781 9.921875 -18.40625 C 10.453125 -18.800781 11.097656 -19.164062 11.859375 -19.5 C 12.617188 -19.832031 13.53125 -20 14.59375 -20 C 15.738281 -20 16.84375 -19.742188 17.90625 -19.234375 C 18.976562 -18.734375 19.921875 -18.035156 20.734375 -17.140625 C 21.546875 -16.242188 22.191406 -15.171875 22.671875 -13.921875 C 23.160156 -12.671875 23.40625 -11.296875 23.40625 -9.796875 C 23.40625 -8.304688 23.160156 -6.929688 22.671875 -5.671875 C 22.191406 -4.421875 21.546875 -3.34375 20.734375 -2.4375 C 19.921875 -1.53125 18.976562 -0.828125 17.90625 -0.328125 C 16.84375 0.160156 15.738281 0.40625 14.59375 0.40625 Z M 13 -4.59375 C 13.695312 -4.59375 14.347656 -4.726562 14.953125 -5 C 15.566406 -5.269531 16.097656 -5.628906 16.546875 -6.078125 C 17.003906 -6.535156 17.359375 -7.082031 17.609375 -7.71875 C 17.867188 -8.363281 18 -9.054688 18 -9.796875 C 18 -10.546875 17.867188 -11.238281 17.609375 -11.875 C 17.359375 -12.519531 17.003906 -13.066406 16.546875 -13.515625 C 16.097656 -13.972656 15.566406 -14.332031 14.953125 -14.59375 C 14.347656 -14.863281 13.695312 -15 13 -15 C 12.300781 -15 11.644531 -14.863281 11.03125 -14.59375 C 10.425781 -14.332031 9.894531 -13.972656 9.4375 -13.515625 C 8.988281 -13.066406 8.632812 -12.519531 8.375 -11.875 C 8.125 -11.238281 8 -10.546875 8 -9.796875 C 8 -9.054688 8.125 -8.363281 8.375 -7.71875 C 8.632812 -7.082031 8.988281 -6.535156 9.4375 -6.078125 C 9.894531 -5.628906 10.425781 -5.269531 11.03125 -5 C 11.644531 -4.726562 12.300781 -4.59375 13 -4.59375 Z M 13 -4.59375 "/></g></g></g><g fill="#ffffff" fill-opacity="1"><g transform="translate(140.133682, 252.503201)"><g><path d="M 11.796875 0.40625 C 10.359375 0.40625 9.003906 0.140625 7.734375 -0.390625 C 6.472656 -0.929688 5.367188 -1.664062 4.421875 -2.59375 C 3.472656 -3.53125 2.734375 -4.613281 2.203125 -5.84375 C 1.671875 -7.070312 1.40625 -8.390625 1.40625 -9.796875 C 1.40625 -11.179688 1.671875 -12.492188 2.203125 -13.734375 C 2.734375 -14.972656 3.460938 -16.0625 4.390625 -17 C 5.328125 -17.9375 6.410156 -18.671875 7.640625 -19.203125 C 8.867188 -19.734375 10.1875 -20 11.59375 -20 C 12.957031 -20 14.234375 -19.738281 15.421875 -19.21875 C 16.609375 -18.695312 17.640625 -17.992188 18.515625 -17.109375 C 19.398438 -16.234375 20.101562 -15.203125 20.625 -14.015625 C 21.144531 -12.828125 21.40625 -11.554688 21.40625 -10.203125 C 21.40625 -9.828125 21.390625 -9.5 21.359375 -9.21875 C 21.328125 -8.9375 21.300781 -8.691406 21.28125 -8.484375 C 21.25 -8.210938 21.222656 -7.984375 21.203125 -7.796875 L 7 -7.796875 C 7.289062 -6.890625 7.851562 -6.097656 8.6875 -5.421875 C 9.53125 -4.742188 10.703125 -4.40625 12.203125 -4.40625 C 13.054688 -4.40625 13.800781 -4.507812 14.4375 -4.71875 C 15.082031 -4.9375 15.628906 -5.191406 16.078125 -5.484375 C 16.585938 -5.796875 17.03125 -6.164062 17.40625 -6.59375 L 20.203125 -2.796875 C 19.609375 -2.210938 18.890625 -1.679688 18.046875 -1.203125 C 17.316406 -0.796875 16.429688 -0.425781 15.390625 -0.09375 C 14.359375 0.238281 13.160156 0.40625 11.796875 0.40625 Z M 15.796875 -11.796875 C 15.503906 -12.703125 14.976562 -13.492188 14.21875 -14.171875 C 13.457031 -14.859375 12.519531 -15.203125 11.40625 -15.203125 C 10.28125 -15.203125 9.335938 -14.859375 8.578125 -14.171875 C 7.816406 -13.492188 7.289062 -12.703125 7 -11.796875 Z M 15.796875 -11.796875 "/></g></g></g><g fill="#ffffff" fill-opacity="1"><g transform="translate(163.011427, 252.503201)"><g/></g></g><g fill="#ffffff" fill-opacity="1"><g transform="translate(171.490595, 252.503201)"><g><path d="M 17 0.59375 C 14.84375 0.59375 12.835938 0.207031 10.984375 -0.5625 C 9.128906 -1.332031 7.519531 -2.378906 6.15625 -3.703125 C 4.800781 -5.023438 3.734375 -6.570312 2.953125 -8.34375 C 2.179688 -10.113281 1.796875 -12 1.796875 -14 C 1.796875 -16 2.179688 -17.882812 2.953125 -19.65625 C 3.734375 -21.425781 4.800781 -22.972656 6.15625 -24.296875 C 7.519531 -25.617188 9.128906 -26.664062 10.984375 -27.4375 C 12.835938 -28.207031 14.84375 -28.59375 17 -28.59375 C 18.945312 -28.59375 20.660156 -28.300781 22.140625 -27.71875 C 23.617188 -27.132812 24.851562 -26.492188 25.84375 -25.796875 C 26.988281 -24.972656 27.972656 -24.039062 28.796875 -23 L 24.796875 -19 C 24.210938 -19.75 23.535156 -20.414062 22.765625 -21 C 22.097656 -21.507812 21.28125 -21.96875 20.3125 -22.375 C 19.351562 -22.789062 18.25 -23 17 -23 C 15.75 -23 14.578125 -22.765625 13.484375 -22.296875 C 12.390625 -21.828125 11.4375 -21.1875 10.625 -20.375 C 9.8125 -19.5625 9.171875 -18.609375 8.703125 -17.515625 C 8.234375 -16.421875 8 -15.25 8 -14 C 8 -12.75 8.234375 -11.578125 8.703125 -10.484375 C 9.171875 -9.390625 9.8125 -8.4375 10.625 -7.625 C 11.4375 -6.8125 12.390625 -6.171875 13.484375 -5.703125 C 14.578125 -5.234375 15.75 -5 17 -5 C 18.007812 -5 18.894531 -5.101562 19.65625 -5.3125 C 20.414062 -5.53125 21.0625 -5.785156 21.59375 -6.078125 C 22.207031 -6.398438 22.742188 -6.773438 23.203125 -7.203125 L 23.203125 -10.59375 L 18 -10.59375 L 18 -15.40625 L 29.203125 -15.40625 L 29.203125 -4.796875 C 28.316406 -3.785156 27.273438 -2.878906 26.078125 -2.078125 C 25.066406 -1.390625 23.800781 -0.769531 22.28125 -0.21875 C 20.757812 0.320312 19 0.59375 17 0.59375 Z M 17 0.59375 "/></g></g></g><g fill="#ffffff" fill-opacity="1"><g transform="translate(203.367435, 252.503201)"><g><path d="M 2.796875 -28 L 8.203125 -28 L 8.203125 0 L 2.796875 0 Z M 2.796875 -28 "/></g></g></g><g fill="#ffffff" fill-opacity="1"><g transform="translate(214.446345, 252.503201)"><g><path d="M 2.59375 -19.59375 L 8 -19.59375 L 8 0 L 2.59375 0 Z M 5.28125 -22.203125 C 4.425781 -22.203125 3.695312 -22.5 3.09375 -23.09375 C 2.5 -23.695312 2.203125 -24.398438 2.203125 -25.203125 C 2.203125 -26.003906 2.507812 -26.703125 3.125 -27.296875 C 3.738281 -27.898438 4.46875 -28.203125 5.3125 -28.203125 C 6.164062 -28.203125 6.894531 -27.898438 7.5 -27.296875 C 8.101562 -26.703125 8.40625 -26.003906 8.40625 -25.203125 C 8.40625 -24.398438 8.097656 -23.695312 7.484375 -23.09375 C 6.867188 -22.5 6.132812 -22.203125 5.28125 -22.203125 Z M 5.28125 -22.203125 "/></g></g></g><g fill="#ffffff" fill-opacity="1"><g transform="translate(225.125296, 252.503201)"><g><path d="M 2.59375 -19.59375 L 8 -19.59375 L 8 -16.796875 L 8.203125 -16.796875 C 8.546875 -17.390625 8.972656 -17.925781 9.484375 -18.40625 C 9.929688 -18.800781 10.488281 -19.164062 11.15625 -19.5 C 11.820312 -19.832031 12.632812 -20 13.59375 -20 C 14.632812 -20 15.53125 -19.816406 16.28125 -19.453125 C 17.03125 -19.097656 17.628906 -18.707031 18.078125 -18.28125 C 18.609375 -17.800781 19.050781 -17.238281 19.40625 -16.59375 L 19.59375 -16.59375 C 20.050781 -17.238281 20.597656 -17.800781 21.234375 -18.28125 C 21.773438 -18.707031 22.4375 -19.097656 23.21875 -19.453125 C 24.007812 -19.816406 24.9375 -20 26 -20 C 26.957031 -20 27.847656 -19.816406 28.671875 -19.453125 C 29.503906 -19.097656 30.226562 -18.578125 30.84375 -17.890625 C 31.457031 -17.210938 31.9375 -16.394531 32.28125 -15.4375 C 32.625 -14.476562 32.796875 -13.398438 32.796875 -12.203125 L 32.796875 0 L 27.40625 0 L 27.40625 -11.40625 C 27.40625 -12.519531 27.125 -13.363281 26.5625 -13.9375 C 26 -14.507812 25.210938 -14.796875 24.203125 -14.796875 C 23.078125 -14.796875 22.160156 -14.425781 21.453125 -13.6875 C 20.753906 -12.957031 20.40625 -11.992188 20.40625 -10.796875 L 20.40625 0 L 15 0 L 15 -11.40625 C 15 -12.519531 14.71875 -13.363281 14.15625 -13.9375 C 13.59375 -14.507812 12.804688 -14.796875 11.796875 -14.796875 C 10.679688 -14.796875 9.769531 -14.425781 9.0625 -13.6875 C 8.351562 -12.957031 8 -11.992188 8 -10.796875 L 8 0 L 2.59375 0 Z M 2.59375 -19.59375 "/></g></g></g><g fill="#ffffff" fill-opacity="1"><g transform="translate(260.601784, 252.503201)"><g><path d="M 2.59375 -19.59375 L 8 -19.59375 L 8 -16.796875 L 8.203125 -16.796875 C 8.597656 -17.390625 9.101562 -17.925781 9.71875 -18.40625 C 10.25 -18.800781 10.894531 -19.164062 11.65625 -19.5 C 12.414062 -19.832031 13.332031 -20 14.40625 -20 C 15.550781 -20 16.65625 -19.742188 17.71875 -19.234375 C 18.78125 -18.734375 19.71875 -18.035156 20.53125 -17.140625 C 21.351562 -16.242188 22.003906 -15.171875 22.484375 -13.921875 C 22.960938 -12.671875 23.203125 -11.296875 23.203125 -9.796875 C 23.203125 -8.304688 22.960938 -6.929688 22.484375 -5.671875 C 22.003906 -4.421875 21.351562 -3.34375 20.53125 -2.4375 C 19.71875 -1.53125 18.78125 -0.828125 17.71875 -0.328125 C 16.65625 0.160156 15.550781 0.40625 14.40625 0.40625 C 13.332031 0.40625 12.414062 0.238281 11.65625 -0.09375 C 10.894531 -0.425781 10.25 -0.796875 9.71875 -1.203125 C 9.101562 -1.679688 8.597656 -2.210938 8.203125 -2.796875 L 8 -2.796875 L 8 8.40625 L 2.59375 8.40625 Z M 12.796875 -4.59375 C 13.492188 -4.59375 14.148438 -4.726562 14.765625 -5 C 15.378906 -5.269531 15.910156 -5.628906 16.359375 -6.078125 C 16.816406 -6.535156 17.171875 -7.082031 17.421875 -7.71875 C 17.671875 -8.363281 17.796875 -9.054688 17.796875 -9.796875 C 17.796875 -10.546875 17.671875 -11.238281 17.421875 -11.875 C 17.171875 -12.519531 16.816406 -13.066406 16.359375 -13.515625 C 15.910156 -13.972656 15.378906 -14.332031 14.765625 -14.59375 C 14.148438 -14.863281 13.492188 -15 12.796875 -15 C 12.109375 -15 11.457031 -14.863281 10.84375 -14.59375 C 10.226562 -14.332031 9.691406 -13.972656 9.234375 -13.515625 C 8.785156 -13.066406 8.429688 -12.519531 8.171875 -11.875 C 7.921875 -11.238281 7.796875 -10.546875 7.796875 -9.796875 C 7.796875 -9.054688 7.921875 -8.363281 8.171875 -7.71875 C 8.429688 -7.082031 8.785156 -6.535156 9.234375 -6.078125 C 9.691406 -5.628906 10.226562 -5.269531 10.84375 -5 C 11.457031 -4.726562 12.109375 -4.59375 12.796875 -4.59375 Z M 12.796875 -4.59375 "/></g></g></g><g fill="#ffffff" fill-opacity="1"><g transform="translate(285.279341, 252.503201)"><g><path d="M 9 0.40625 C 7.632812 0.40625 6.429688 0.21875 5.390625 -0.15625 C 4.359375 -0.53125 3.484375 -0.945312 2.765625 -1.40625 C 1.910156 -1.90625 1.1875 -2.503906 0.59375 -3.203125 L 3.796875 -6.59375 C 4.203125 -6.164062 4.671875 -5.796875 5.203125 -5.484375 C 5.648438 -5.191406 6.191406 -4.9375 6.828125 -4.71875 C 7.472656 -4.507812 8.195312 -4.40625 9 -4.40625 C 9.90625 -4.40625 10.53125 -4.535156 10.875 -4.796875 C 11.226562 -5.066406 11.40625 -5.398438 11.40625 -5.796875 C 11.40625 -6.171875 11.15625 -6.484375 10.65625 -6.734375 C 10.164062 -6.992188 9.546875 -7.242188 8.796875 -7.484375 C 8.054688 -7.722656 7.257812 -8 6.40625 -8.3125 C 5.550781 -8.632812 4.75 -9.035156 4 -9.515625 C 3.25 -9.992188 2.628906 -10.59375 2.140625 -11.3125 C 1.648438 -12.039062 1.40625 -12.9375 1.40625 -14 C 1.40625 -14.800781 1.578125 -15.5625 1.921875 -16.28125 C 2.265625 -17 2.765625 -17.640625 3.421875 -18.203125 C 4.078125 -18.765625 4.890625 -19.203125 5.859375 -19.515625 C 6.828125 -19.835938 7.941406 -20 9.203125 -20 C 10.453125 -20 11.550781 -19.835938 12.5 -19.515625 C 13.445312 -19.203125 14.238281 -18.859375 14.875 -18.484375 C 15.625 -18.023438 16.265625 -17.53125 16.796875 -17 L 13.59375 -13.59375 C 13.28125 -13.894531 12.894531 -14.164062 12.4375 -14.40625 C 12.0625 -14.613281 11.597656 -14.796875 11.046875 -14.953125 C 10.503906 -15.117188 9.890625 -15.203125 9.203125 -15.203125 C 8.503906 -15.203125 7.992188 -15.070312 7.671875 -14.8125 C 7.359375 -14.5625 7.203125 -14.289062 7.203125 -14 C 7.203125 -13.625 7.445312 -13.3125 7.9375 -13.0625 C 8.4375 -12.8125 9.054688 -12.5625 9.796875 -12.3125 C 10.546875 -12.070312 11.347656 -11.789062 12.203125 -11.46875 C 13.054688 -11.15625 13.851562 -10.757812 14.59375 -10.28125 C 15.34375 -9.800781 15.960938 -9.203125 16.453125 -8.484375 C 16.953125 -7.765625 17.203125 -6.867188 17.203125 -5.796875 C 17.203125 -4.941406 17.023438 -4.140625 16.671875 -3.390625 C 16.328125 -2.648438 15.804688 -2 15.109375 -1.4375 C 14.421875 -0.875 13.570312 -0.425781 12.5625 -0.09375 C 11.550781 0.238281 10.363281 0.40625 9 0.40625 Z M 9 0.40625 "/></g></g></g><g fill="#ffffff" fill-opacity="1"><g transform="translate(303.557523, 252.503201)"><g><path d="M 11.796875 0.40625 C 10.359375 0.40625 9.003906 0.140625 7.734375 -0.390625 C 6.472656 -0.929688 5.367188 -1.664062 4.421875 -2.59375 C 3.472656 -3.53125 2.734375 -4.613281 2.203125 -5.84375 C 1.671875 -7.070312 1.40625 -8.390625 1.40625 -9.796875 C 1.40625 -11.179688 1.671875 -12.492188 2.203125 -13.734375 C 2.734375 -14.972656 3.460938 -16.0625 4.390625 -17 C 5.328125 -17.9375 6.410156 -18.671875 7.640625 -19.203125 C 8.867188 -19.734375 10.1875 -20 11.59375 -20 C 12.957031 -20 14.234375 -19.738281 15.421875 -19.21875 C 16.609375 -18.695312 17.640625 -17.992188 18.515625 -17.109375 C 19.398438 -16.234375 20.101562 -15.203125 20.625 -14.015625 C 21.144531 -12.828125 21.40625 -11.554688 21.40625 -10.203125 C 21.40625 -9.828125 21.390625 -9.5 21.359375 -9.21875 C 21.328125 -8.9375 21.300781 -8.691406 21.28125 -8.484375 C 21.25 -8.210938 21.222656 -7.984375 21.203125 -7.796875 L 7 -7.796875 C 7.289062 -6.890625 7.851562 -6.097656 8.6875 -5.421875 C 9.53125 -4.742188 10.703125 -4.40625 12.203125 -4.40625 C 13.054688 -4.40625 13.800781 -4.507812 14.4375 -4.71875 C 15.082031 -4.9375 15.628906 -5.191406 16.078125 -5.484375 C 16.585938 -5.796875 17.03125 -6.164062 17.40625 -6.59375 L 20.203125 -2.796875 C 19.609375 -2.210938 18.890625 -1.679688 18.046875 -1.203125 C 17.316406 -0.796875 16.429688 -0.425781 15.390625 -0.09375 C 14.359375 0.238281 13.160156 0.40625 11.796875 0.40625 Z M 15.796875 -11.796875 C 15.503906 -12.703125 14.976562 -13.492188 14.21875 -14.171875 C 13.457031 -14.859375 12.519531 -15.203125 11.40625 -15.203125 C 10.28125 -15.203125 9.335938 -14.859375 8.578125 -14.171875 C 7.816406 -13.492188 7.289062 -12.703125 7 -11.796875 Z M 15.796875 -11.796875 "/></g></g></g><g fill="#ffffff" fill-opacity="1"><g transform="translate(136.930593, 295.902871)"><g><path d="M 2.5 -6.046875 L 0.296875 -6.046875 L 0.296875 -6.703125 L 5.40625 -6.703125 L 5.40625 -6.046875 L 3.203125 -6.046875 L 3.203125 0 L 2.5 0 Z M 2.5 -6.046875 "/></g></g></g><g fill="#ffffff" fill-opacity="1"><g transform="translate(145.028336, 295.902871)"><g><path d="M 0.90625 -6.703125 L 2.5 -6.703125 C 2.832031 -6.703125 3.140625 -6.648438 3.421875 -6.546875 C 3.703125 -6.453125 3.941406 -6.316406 4.140625 -6.140625 C 4.347656 -5.960938 4.507812 -5.753906 4.625 -5.515625 C 4.738281 -5.273438 4.796875 -5.015625 4.796875 -4.734375 C 4.796875 -4.492188 4.757812 -4.269531 4.6875 -4.0625 C 4.613281 -3.863281 4.507812 -3.679688 4.375 -3.515625 C 4.25 -3.359375 4.09375 -3.222656 3.90625 -3.109375 C 3.71875 -2.992188 3.515625 -2.90625 3.296875 -2.84375 L 5.203125 0 L 4.359375 0 L 2.5 -2.765625 L 1.59375 -2.765625 L 1.59375 0 L 0.90625 0 Z M 2.5 -3.40625 C 2.976562 -3.40625 3.363281 -3.523438 3.65625 -3.765625 C 3.945312 -4.003906 4.09375 -4.328125 4.09375 -4.734375 C 4.09375 -5.140625 3.945312 -5.457031 3.65625 -5.6875 C 3.363281 -5.925781 2.976562 -6.046875 2.5 -6.046875 L 1.59375 -6.046875 L 1.59375 -3.40625 Z M 2.5 -3.40625 "/></g></g></g><g fill="#ffffff" fill-opacity="1"><g transform="translate(153.026127, 295.902871)"><g><path d="M 2.84375 -6.90625 L 3.046875 -6.90625 L 5.59375 0 L 4.828125 0 L 4.203125 -1.765625 L 1.65625 -1.765625 L 1.03125 0 L 0.296875 0 Z M 3.96875 -2.40625 L 2.9375 -5.3125 L 1.890625 -2.40625 Z M 3.96875 -2.40625 "/></g></g></g><g fill="#ffffff" fill-opacity="1"><g transform="translate(161.323799, 295.902871)"><g><path d="M 0.296875 -6.703125 L 1.046875 -6.703125 L 2.875 -1.453125 L 4.8125 -6.703125 L 5.5 -6.703125 L 2.9375 0.203125 L 2.734375 0.203125 Z M 0.296875 -6.703125 "/></g></g></g><g fill="#ffffff" fill-opacity="1"><g transform="translate(169.521507, 295.902871)"><g><path d="M 0.90625 -6.703125 L 4.34375 -6.703125 L 4.34375 -6.046875 L 1.59375 -6.046875 L 1.59375 -3.796875 L 3.703125 -3.796875 L 3.703125 -3.15625 L 1.59375 -3.15625 L 1.59375 -0.65625 L 4.40625 -0.65625 L 4.40625 0 L 0.90625 0 Z M 0.90625 -6.703125 "/></g></g></g><g fill="#ffffff" fill-opacity="1"><g transform="translate(176.919526, 295.902871)"><g><path d="M 0.90625 -6.703125 L 1.59375 -6.703125 L 1.59375 -0.65625 L 4.296875 -0.65625 L 4.296875 0 L 0.90625 0 Z M 0.90625 -6.703125 "/></g></g></g><g fill="#ffffff" fill-opacity="1"><g transform="translate(184.067651, 295.902871)"><g/></g></g><g fill="#ffffff" fill-opacity="1"><g transform="translate(188.666776, 295.902871)"><g><path d="M 2.84375 -6.90625 L 3.046875 -6.90625 L 5.59375 0 L 4.828125 0 L 4.203125 -1.765625 L 1.65625 -1.765625 L 1.03125 0 L 0.296875 0 Z M 3.96875 -2.40625 L 2.9375 -5.3125 L 1.890625 -2.40625 Z M 3.96875 -2.40625 "/></g></g></g><g fill="#ffffff" fill-opacity="1"><g transform="translate(196.964446, 295.902871)"><g><path d="M 3.8125 0.09375 C 3.351562 0.09375 2.921875 0.00390625 2.515625 -0.171875 C 2.117188 -0.347656 1.769531 -0.585938 1.46875 -0.890625 C 1.164062 -1.203125 0.925781 -1.5625 0.75 -1.96875 C 0.582031 -2.382812 0.5 -2.832031 0.5 -3.3125 C 0.5 -3.800781 0.585938 -4.253906 0.765625 -4.671875 C 0.941406 -5.097656 1.179688 -5.46875 1.484375 -5.78125 C 1.785156 -6.101562 2.140625 -6.351562 2.546875 -6.53125 C 2.953125 -6.707031 3.382812 -6.796875 3.84375 -6.796875 C 4.34375 -6.796875 4.8125 -6.691406 5.25 -6.484375 C 5.6875 -6.273438 6.0625 -5.988281 6.375 -5.625 L 5.84375 -5.1875 C 5.582031 -5.476562 5.28125 -5.703125 4.9375 -5.859375 C 4.59375 -6.023438 4.226562 -6.109375 3.84375 -6.109375 C 3.46875 -6.109375 3.125 -6.035156 2.8125 -5.890625 C 2.5 -5.753906 2.222656 -5.5625 1.984375 -5.3125 C 1.753906 -5.070312 1.570312 -4.78125 1.4375 -4.4375 C 1.3125 -4.101562 1.25 -3.738281 1.25 -3.34375 C 1.25 -2.957031 1.3125 -2.59375 1.4375 -2.25 C 1.570312 -1.914062 1.753906 -1.625 1.984375 -1.375 C 2.222656 -1.132812 2.5 -0.941406 2.8125 -0.796875 C 3.132812 -0.660156 3.484375 -0.59375 3.859375 -0.59375 C 4.273438 -0.59375 4.65625 -0.675781 5 -0.84375 C 5.34375 -1.007812 5.632812 -1.234375 5.875 -1.515625 L 5.875 -2.953125 L 3.84375 -2.953125 L 3.84375 -3.59375 L 6.5625 -3.59375 L 6.5625 -1.375 C 6.238281 -0.90625 5.835938 -0.539062 5.359375 -0.28125 C 4.890625 -0.03125 4.375 0.09375 3.8125 0.09375 Z M 3.8125 0.09375 "/></g></g></g><g fill="#ffffff" fill-opacity="1"><g transform="translate(206.581585, 295.902871)"><g><path d="M 0.90625 -6.703125 L 4.34375 -6.703125 L 4.34375 -6.046875 L 1.59375 -6.046875 L 1.59375 -3.796875 L 3.703125 -3.796875 L 3.703125 -3.15625 L 1.59375 -3.15625 L 1.59375 -0.65625 L 4.40625 -0.65625 L 4.40625 0 L 0.90625 0 Z M 0.90625 -6.703125 "/></g></g></g><g fill="#ffffff" fill-opacity="1"><g transform="translate(213.979601, 295.902871)"><g><path d="M 1.578125 -5.203125 L 1.578125 0 L 0.90625 0 L 0.90625 -6.90625 L 1.09375 -6.90625 L 5.625 -1.484375 L 5.625 -6.703125 L 6.296875 -6.703125 L 6.296875 0.203125 L 6.09375 0.203125 Z M 1.578125 -5.203125 "/></g></g></g><g fill="#ffffff" fill-opacity="1"><g transform="translate(223.576759, 295.902871)"><g><path d="M 3.8125 0.09375 C 3.34375 0.09375 2.90625 0.00390625 2.5 -0.171875 C 2.101562 -0.347656 1.753906 -0.585938 1.453125 -0.890625 C 1.160156 -1.191406 0.925781 -1.550781 0.75 -1.96875 C 0.582031 -2.382812 0.5 -2.832031 0.5 -3.3125 C 0.5 -3.800781 0.585938 -4.253906 0.765625 -4.671875 C 0.941406 -5.097656 1.179688 -5.46875 1.484375 -5.78125 C 1.785156 -6.101562 2.140625 -6.351562 2.546875 -6.53125 C 2.953125 -6.707031 3.382812 -6.796875 3.84375 -6.796875 C 4.34375 -6.796875 4.8125 -6.691406 5.25 -6.484375 C 5.6875 -6.273438 6.0625 -5.988281 6.375 -5.625 L 5.84375 -5.1875 C 5.582031 -5.476562 5.28125 -5.703125 4.9375 -5.859375 C 4.601562 -6.023438 4.234375 -6.109375 3.828125 -6.109375 C 3.453125 -6.109375 3.109375 -6.039062 2.796875 -5.90625 C 2.484375 -5.769531 2.210938 -5.578125 1.984375 -5.328125 C 1.753906 -5.078125 1.570312 -4.785156 1.4375 -4.453125 C 1.3125 -4.117188 1.25 -3.753906 1.25 -3.359375 C 1.25 -2.960938 1.3125 -2.59375 1.4375 -2.25 C 1.570312 -1.90625 1.753906 -1.613281 1.984375 -1.375 C 2.222656 -1.132812 2.5 -0.941406 2.8125 -0.796875 C 3.132812 -0.660156 3.488281 -0.59375 3.875 -0.59375 C 4.289062 -0.59375 4.664062 -0.675781 5 -0.84375 C 5.34375 -1.007812 5.632812 -1.234375 5.875 -1.515625 L 6.375 -1.078125 C 6.0625 -0.710938 5.6875 -0.425781 5.25 -0.21875 C 4.8125 -0.0078125 4.332031 0.09375 3.8125 0.09375 Z M 3.8125 0.09375 "/></g></g></g><g fill="#ffffff" fill-opacity="1"><g transform="translate(232.794064, 295.902871)"><g><path d="M 2.25 -2.59375 L 0.203125 -6.703125 L 0.984375 -6.703125 L 2.65625 -3.375 L 4.34375 -6.703125 L 5.0625 -6.703125 L 2.953125 -2.59375 L 2.953125 0 L 2.25 0 Z M 2.25 -2.59375 "/></g></g></g></svg>